<?xml version="1.0" standalone="no"?>
<!DOCTYPE svg PUBLIC "-//W3C//DTD SVG 20010904//EN"
 "http://www.w3.org/TR/2001/REC-SVG-20010904/DTD/svg10.dtd">
<svg version="1.0" xmlns="http://www.w3.org/2000/svg"
 width="300.000000pt" height="300.000000pt" viewBox="0 0 300.000000 300.000000"
 preserveAspectRatio="xMidYMid meet">
<metadata>
Created by potrace 1.10, written by Peter Selinger 2001-2011
</metadata>
<g transform="translate(0.000000,300.000000) scale(0.100000,-0.100000)"
fill="#FFFFFF" stroke="none">
<path d="M2220 2937 c0 -10 -22 -40 -50 -68 -27 -27 -50 -53 -50 -57 0 -13
-95 -102 -108 -102 -7 0 -21 9 -31 19 -23 23 -61 44 -67 38 -2 -2 16 -17 41
-32 54 -34 50 -42 -41 -85 -35 -16 -64 -32 -64 -35 0 -6 41 10 111 45 33 16
63 29 67 28 23 -5 137 28 192 57 66 34 191 60 239 50 19 -4 22 -2 12 8 -27 27
-193 6 -251 -33 -33 -22 -95 -46 -143 -54 l-38 -7 89 90 c49 50 94 91 100 91
7 0 12 4 12 10 0 11 166 11 217 -1 18 -4 31 -3 28 1 -9 15 -127 33 -185 27
-49 -4 -62 -2 -70 11 -9 15 -9 15 -10 -1z"/>
<path d="M2679 2849 c0 -35 -4 -73 -9 -84 -8 -18 -9 -18 -9 -2 -1 10 -5 15
-11 12 -5 -3 -10 -30 -9 -58 l1 -52 13 40 13 40 2 -40 c1 -22 2 -44 1 -48 -1
-5 2 -6 7 -3 5 3 47 -8 93 -24 96 -34 89 -33 89 -22 0 12 -33 26 -113 47 l-68
18 3 51 3 51 50 -3 c28 -2 64 -5 80 -8 21 -3 26 -2 15 4 -8 6 -43 13 -77 17
l-62 7 0 55 c0 30 -2 57 -5 61 -3 3 -6 -24 -7 -59z"/>
<path d="M2735 2882 c29 -13 114 -24 95 -13 -8 5 -37 12 -65 15 -32 4 -43 3
-30 -2z"/>
<path d="M2376 2734 c-4 -22 -9 -57 -11 -79 l-4 -40 8 40 c4 22 13 52 19 66 5
14 7 31 2 38 -5 9 -10 -1 -14 -25z"/>
<path d="M2597 2720 c3 -30 7 -57 9 -59 8 -9 2 75 -6 94 -6 13 -7 1 -3 -35z"/>
<path d="M2445 2604 c-47 -24 -135 -55 -198 -69 -33 -8 -61 -16 -64 -18 -13
-14 92 9 167 35 47 17 105 36 130 43 25 8 40 14 33 14 -6 1 -17 3 -25 6 -7 3
-26 -2 -43 -11z"/>
<path d="M2462 2540 c-29 -29 -52 -56 -52 -61 0 -4 21 14 47 42 l47 50 14 -26
c19 -38 12 -70 -15 -69 -13 0 -21 -2 -18 -4 7 -7 -73 -52 -91 -52 -8 0 -14 -5
-14 -10 0 -6 11 -5 28 3 15 7 51 24 80 37 57 26 63 41 38 109 l-12 34 -52 -53z"/>
<path d="M1081 2468 c-19 -21 -31 -41 -29 -44 3 -3 20 13 38 36 42 53 35 58
-9 8z"/>
<path d="M1137 2023 c-4 -4 -51 -10 -105 -13 l-97 -7 93 -1 c50 -1 92 -6 92
-11 0 -14 32 -23 43 -12 6 6 17 7 26 2 12 -6 195 -8 234 -2 4 1 7 10 7 20 0
23 -30 31 -115 30 -75 0 -96 -6 -88 -25 3 -9 -2 -14 -17 -14 -15 0 -20 5 -17
14 4 10 0 14 -14 13 -10 -1 -19 -7 -19 -14 0 -7 -7 -13 -15 -13 -13 0 -14 4
-5 20 11 20 9 26 -3 13z m246 -10 c45 -8 30 -22 -23 -21 -46 1 -58 7 -45 20 7
7 35 7 68 1z"/>
<path d="M1497 2016 c-16 -13 -16 -14 7 -30 34 -21 146 -12 146 13 0 10 9 17
25 17 15 1 25 -3 25 -12 0 -8 -10 -14 -22 -15 -18 -1 -16 -3 8 -8 17 -5 42 -7
55 -5 13 1 28 3 32 3 5 1 7 11 5 24 -3 21 -6 22 -133 24 -94 1 -135 -2 -148
-11z"/>
<path d="M1845 2012 c-76 -6 -54 -17 28 -14 145 4 165 7 87 12 -41 3 -93 4
-115 2z"/>
<path d="M978 1983 c17 -2 47 -2 65 0 17 2 3 4 -33 4 -36 0 -50 -2 -32 -4z"/>
<path d="M1255 1889 c-4 -6 -19 -7 -36 -4 -18 4 -36 2 -44 -5 -12 -10 -22 -10
-45 0 -28 11 -33 10 -55 -10 l-24 -22 -30 22 c-34 23 -65 20 -80 -8 -16 -32
-12 -141 6 -173 21 -35 31 -36 65 -4 25 23 58 25 58 4 0 -5 12 -14 27 -20 21
-8 28 -7 35 6 11 19 32 19 48 0 9 -11 17 -12 32 -4 15 8 27 8 45 0 19 -9 27
-8 39 4 9 8 21 15 28 15 21 0 49 -37 40 -52 -15 -24 -15 -50 1 -82 11 -20 12
-32 5 -34 -6 -2 -24 -15 -40 -29 l-30 -24 -22 26 c-17 19 -33 27 -63 28 -65 2
-93 -9 -99 -40 -5 -29 -10 -112 -7 -149 1 -24 44 -47 72 -39 17 6 22 0 21 -25
0 -3 -3 -35 -7 -72 -4 -46 -3 -68 4 -68 7 0 11 25 11 64 0 74 6 96 27 96 33 0
57 47 36 71 -10 12 -11 23 -4 40 l10 24 0 -23 c3 -86 105 -140 182 -95 27 16
29 16 48 -1 19 -17 22 -17 45 -3 19 13 29 14 54 5 26 -10 34 -9 51 6 19 18 21
17 51 -4 63 -45 155 -10 181 67 32 98 -102 187 -185 122 l-27 -21 -24 22 c-23
22 -25 22 -50 6 -25 -17 -28 -17 -46 0 -18 16 -18 17 1 42 24 29 25 60 5 89
-14 19 -13 22 12 38 24 16 28 16 60 1 47 -22 74 -20 117 9 36 25 36 25 56 5
25 -25 46 -25 68 0 19 23 19 23 21 82 1 57 20 37 28 -30 4 -38 12 -55 28 -66
36 -23 61 1 69 66 4 29 14 67 23 85 16 30 16 33 -2 52 -24 27 -109 29 -137 4
-14 -13 -21 -14 -30 -5 -18 18 -39 15 -64 -9 l-23 -22 -31 27 c-37 30 -93 35
-128 10 -19 -13 -28 -13 -56 -3 -25 9 -38 10 -48 2 -10 -8 -18 -8 -32 3 -16
11 -23 11 -48 -4 -23 -13 -32 -14 -48 -4 -26 16 -45 15 -60 -3 -11 -13 -16
-12 -40 5 -32 23 -36 24 -45 9z m-189 -84 c8 11 24 31 34 45 l19 25 1 -93 c0
-69 -3 -93 -12 -90 -8 3 -11 24 -10 59 l2 54 -26 -31 -27 -31 -27 30 -27 30 5
-56 c4 -48 2 -57 -12 -57 -14 0 -16 14 -16 93 l0 92 40 -45 c39 -44 40 -45 56
-25z m147 -25 c0 -54 -4 -85 -12 -88 -8 -3 -11 24 -11 88 0 64 3 91 11 88 8
-3 12 -34 12 -88z m77 0 c0 -73 -3 -90 -15 -90 -12 0 -15 16 -15 83 0 46 3 87
7 90 18 18 23 0 23 -83z m170 38 c0 39 4 52 15 52 12 0 15 -17 15 -92 0 -104
6 -102 -64 -14 -15 20 -31 36 -35 36 -3 0 -4 -25 -3 -55 3 -45 1 -55 -12 -55
-14 0 -16 15 -16 93 l0 92 50 -55 49 -55 1 53z m110 -44 c0 -68 -3 -84 -15
-84 -12 0 -15 16 -15 83 0 46 3 87 6 90 17 16 24 -11 24 -89z m165 84 c14 -6
25 -15 25 -19 0 -12 -29 -19 -35 -9 -4 6 -19 10 -35 10 -57 0 -78 -84 -28
-111 26 -14 68 -3 68 17 0 10 -6 14 -15 10 -9 -3 -15 0 -15 9 0 10 10 15 30
15 27 0 30 -3 30 -31 0 -25 -6 -32 -34 -44 -47 -20 -89 -5 -110 40 -15 30 -15
38 -2 69 22 53 66 69 121 44z m125 -78 c0 -73 -3 -90 -15 -90 -12 0 -15 17
-15 90 0 73 3 90 15 90 12 0 15 -17 15 -90z m170 74 c0 -8 -9 -14 -20 -14 -18
0 -20 -7 -20 -75 0 -60 -3 -75 -15 -75 -12 0 -15 15 -15 75 0 73 -1 75 -25 75
-24 0 -32 10 -19 23 3 3 30 5 60 5 39 0 54 -4 54 -14z m-569 -173 c25 -24 13
-32 -35 -24 -35 5 -36 7 -20 24 21 24 30 24 55 0z m-21 -51 c0 -5 -9 -10 -20
-10 -11 0 -20 -4 -20 -10 0 -5 9 -10 21 -10 12 0 17 -4 14 -11 -4 -6 -13 -8
-21 -5 -9 3 -14 -2 -14 -14 0 -11 -4 -20 -10 -20 -11 0 -14 73 -3 83 10 11 53
8 53 -3z m104 -9 c38 -42 -22 -94 -64 -56 -25 23 -25 30 0 55 25 25 42 25 64
1z m-66 -86 c20 -11 29 -21 25 -31 -3 -8 -8 -13 -12 -11 -3 2 -21 10 -38 17
-33 14 -45 40 -20 40 8 0 28 -7 45 -15z m-218 -60 c0 -11 -12 -15 -45 -15 -38
0 -45 -3 -45 -20 0 -16 7 -20 35 -20 24 0 35 -5 35 -15 0 -10 -11 -15 -35 -15
-28 0 -35 -4 -35 -20 0 -17 7 -20 45 -20 33 0 45 -4 45 -15 0 -12 -13 -15 -60
-15 l-60 0 0 85 0 85 60 0 c47 0 60 -3 60 -15z m196 1 c14 -11 16 -18 8 -26
-8 -8 -14 -9 -18 -1 -4 6 -23 11 -41 11 -26 0 -39 -6 -52 -26 -15 -24 -15 -29
-2 -53 16 -29 61 -40 85 -20 10 8 18 9 25 2 7 -7 4 -16 -12 -27 -56 -39 -129
0 -129 69 0 68 81 111 136 71z m90 -21 l-7 -35 41 0 41 0 -7 35 c-5 28 -3 35
10 35 13 0 16 -14 16 -85 0 -70 -3 -85 -15 -85 -12 0 -15 9 -13 37 3 35 2 36
-32 36 -34 0 -35 0 -32 -36 3 -28 0 -37 -12 -37 -13 0 -16 14 -16 85 0 71 3
85 16 85 13 0 15 -7 10 -35z m289 10 c52 -51 16 -145 -55 -145 -39 0 -90 47
-90 83 0 14 12 39 26 56 33 40 83 43 119 6z m-355 -52 c0 -14 -10 -19 -44 -21
-25 -1 -47 2 -51 8 -6 9 10 15 65 23 14 3 26 5 28 6 1 0 2 -7 2 -16z"/>
<path d="M1484 1605 c-4 -9 -2 -21 4 -27 16 -16 47 -5 47 17 0 26 -42 34 -51
10z"/>
<path d="M1760 1463 c-39 -14 -53 -69 -24 -97 23 -24 70 -20 88 6 22 31 20 45
-9 73 -25 26 -29 27 -55 18z"/>
<path d="M2852 1699 l5 -47 -27 8 c-15 4 -37 13 -48 19 -11 6 -29 11 -39 11
-17 -1 20 -17 95 -42 20 -7 32 -18 32 -30 0 -29 -1 -33 -11 -30 -5 1 -9 -2 -9
-8 0 -5 5 -10 10 -10 6 0 10 -30 10 -70 l0 -70 -37 18 c-21 9 -40 20 -43 23
-3 3 -18 12 -35 20 -29 14 -30 17 -41 119 -6 58 -12 101 -14 95 -1 -5 -2 -13
-2 -16 0 -3 3 -77 7 -165 6 -183 14 -263 27 -284 5 -9 6 37 2 118 l-6 133 37
-23 c91 -57 98 -59 109 -48 15 15 21 197 7 214 -6 7 -14 33 -17 57 -8 60 -18
66 -12 8z"/>
<path d="M2597 1636 l6 -68 -44 8 c-61 11 -104 7 -174 -17 -57 -19 -138 -58
-123 -59 4 0 32 11 62 24 104 46 216 56 260 23 12 -10 17 -44 21 -177 7 -175
13 -216 25 -165 17 69 5 255 -30 450 -7 45 -8 42 -3 -19z"/>
<path d="M2481 1353 c-1 -60 3 -93 10 -93 6 0 8 9 4 21 -6 18 -4 21 12 17 18
-5 19 -2 12 45 -5 27 -7 53 -6 57 1 5 -2 8 -8 8 -5 0 -12 9 -16 19 -4 10 -8
-24 -8 -74z"/>
<path d="M2765 1424 c4 -10 10 -29 12 -41 3 -13 12 -23 19 -23 17 0 19 -20 2
-20 -15 -1 -52 -49 -44 -57 3 -3 8 2 12 11 8 21 33 21 51 -1 13 -17 14 -16 8
7 -3 14 -7 32 -8 40 -1 8 -8 25 -14 36 -7 12 -11 23 -9 25 1 2 -6 13 -17 23
-20 19 -20 19 -12 0z"/>
<path d="M2840 1375 c5 -23 4 -36 -4 -39 -6 -2 -3 -5 7 -5 15 -1 16 -7 11 -43
-5 -30 -3 -40 4 -33 13 12 20 130 9 141 -4 5 -5 1 -2 -8 4 -9 2 -19 -4 -23 -7
-3 -11 2 -11 14 0 11 -4 22 -9 25 -5 4 -6 -9 -1 -29z"/>
<path d="M2258 1300 c3 -47 9 -86 13 -88 5 -2 9 -15 9 -28 0 -13 5 -24 11 -24
6 0 8 7 4 17 -12 33 -25 108 -21 128 2 11 0 25 -4 30 -4 6 -10 19 -12 30 -3
11 -3 -18 0 -65z"/>
<path d="M1459 1183 c-1 -10 -1 -24 0 -31 1 -8 -7 -16 -18 -19 -29 -7 -44 -67
-29 -109 8 -23 8 -46 1 -83 -9 -47 -9 -51 8 -51 13 0 19 -7 19 -24 0 -44 12
-88 21 -75 4 8 11 11 14 7 3 -3 -2 -13 -11 -22 -13 -14 -14 -22 -6 -39 10 -21
11 -21 11 5 1 15 6 30 11 33 6 3 10 21 10 38 0 50 11 77 29 77 15 0 16 7 10
53 -4 37 -2 60 8 80 18 35 0 103 -29 110 -11 3 -18 11 -17 19 4 30 -2 48 -16
48 -8 0 -16 -8 -16 -17z m29 -85 c12 -16 13 -186 1 -194 -5 -3 -9 -18 -9 -35
0 -16 -5 -29 -11 -29 -7 0 -10 12 -7 30 3 19 0 30 -8 30 -18 0 -21 18 -17 104
4 93 23 128 51 94z"/>
<path d="M1337 826 c-4 -10 5 -13 35 -13 l41 0 -33 13 c-39 17 -37 17 -43 0z"/>
<path d="M1366 769 c7 -11 64 -12 64 -1 0 4 -16 8 -35 9 -19 1 -32 -3 -29 -8z"/>
<path d="M1483 683 c-7 -2 -13 -11 -13 -19 0 -9 -4 -12 -10 -9 -5 3 -10 1 -10
-4 0 -6 9 -11 20 -11 13 0 18 5 14 15 -4 9 0 15 10 15 9 0 16 5 16 10 0 11 -7
12 -27 3z"/>
<path d="M888 485 c-10 -16 -18 -36 -18 -43 0 -17 29 -72 38 -72 6 -1 168 0
232 0 54 0 60 -2 60 -19 0 -10 6 -23 13 -28 7 -6 113 -9 267 -9 l255 2 15 27
c10 19 21 26 33 23 10 -2 55 -1 99 4 50 5 92 4 110 -2 54 -19 105 38 85 95
-14 43 -49 62 -88 48 -17 -6 -36 -8 -42 -4 -6 4 -66 8 -134 10 l-122 4 -18
-28 c-11 -17 -17 -43 -16 -69 2 -46 -9 -57 -46 -47 -14 3 -20 11 -17 22 14 50
16 82 7 100 -10 18 -21 19 -143 19 -73 -1 -137 -3 -142 -6 -14 -8 -66 -9 -107
-1 -21 3 -44 2 -53 -3 -9 -5 -22 -5 -29 -1 -6 4 -59 8 -116 8 l-104 0 -19 -30z
m562 -21 c0 -8 5 -14 10 -14 6 0 10 7 10 15 0 8 5 15 10 15 6 0 10 -20 10 -45
0 -25 -4 -45 -10 -45 -5 0 -10 9 -10 20 0 11 -4 20 -10 20 -5 0 -10 -6 -10
-14 0 -8 -4 -18 -10 -21 -6 -4 -10 13 -10 45 0 32 4 49 10 45 6 -3 10 -13 10
-21z m-511 -6 l8 -22 12 22 c19 35 31 26 31 -23 0 -25 -4 -45 -10 -45 -5 0
-10 10 -10 23 0 18 -2 19 -10 7 -9 -13 -11 -13 -20 0 -8 12 -10 11 -10 -7 0
-13 -4 -23 -10 -23 -5 0 -10 20 -10 45 0 48 15 60 29 23z m101 -23 c0 -25 -4
-45 -10 -45 -5 0 -10 20 -10 45 0 25 5 45 10 45 6 0 10 -20 10 -45z m90 25
c13 -25 -1 -56 -30 -65 -30 -9 -40 2 -40 46 0 37 2 39 30 39 19 0 33 -7 40
-20z m64 -7 l15 -28 1 28 c0 15 5 27 10 27 6 0 10 -21 10 -47 l-1 -48 -24 28
-25 28 0 -25 c0 -14 -4 -26 -10 -26 -5 0 -10 20 -10 45 0 51 13 58 34 18z m96
-19 c0 -31 -4 -44 -12 -42 -17 6 -18 88 -1 88 9 0 13 -15 13 -46z m105 36 c4
-6 -7 -10 -24 -10 -24 0 -31 -4 -31 -19 0 -25 12 -32 30 -20 13 7 13 9 0 9
-13 0 -13 2 0 9 17 11 30 5 30 -14 0 -22 -36 -38 -59 -26 -43 23 -30 81 18 81
16 0 33 -4 36 -10z m195 0 c0 -5 -7 -10 -16 -10 -11 0 -15 -8 -12 -32 2 -19
-2 -33 -9 -35 -9 -3 -13 7 -13 31 0 20 -4 36 -10 36 -5 0 -10 5 -10 10 0 6 16
10 35 10 19 0 35 -4 35 -10z m160 0 c0 -5 -10 -10 -22 -11 -22 0 -22 -1 2 -11
25 -11 25 -11 3 -15 -28 -5 -30 -23 -3 -23 11 0 20 -4 20 -10 0 -5 -13 -10
-30 -10 -29 0 -30 2 -30 45 0 43 1 45 30 45 17 0 30 -4 30 -10z m95 1 c3 -5
-7 -11 -22 -13 -20 -2 -28 -9 -28 -23 0 -16 6 -19 30 -17 28 3 29 2 14 -13
-35 -36 -91 22 -59 60 14 17 56 20 65 6z m45 -6 c0 -8 7 -15 15 -15 8 0 15 7
15 15 0 8 5 15 10 15 6 0 10 -20 10 -45 0 -25 -4 -45 -10 -45 -5 0 -10 9 -10
20 0 11 -7 20 -15 20 -8 0 -15 -9 -15 -20 0 -11 -4 -20 -10 -20 -5 0 -10 20
-10 45 0 25 5 45 10 45 6 0 10 -7 10 -15z m158 -20 c3 -19 -2 -33 -14 -42 -26
-19 -42 -16 -59 11 -24 36 -5 68 38 64 27 -3 33 -8 35 -33z m-788 -98 c0 -7
-9 -13 -20 -14 -11 -1 -20 4 -20 13 0 8 9 14 20 14 11 0 20 -6 20 -13z"/>
<path d="M1080 435 c0 -28 12 -32 30 -10 14 16 6 35 -16 35 -8 0 -14 -10 -14
-25z"/>
<path d="M1984 449 c-8 -14 21 -43 35 -35 6 4 11 16 11 27 0 21 -34 27 -46 8z"/>
<path d="M695 259 c-36 -6 -35 -6 20 -8 33 -1 397 -3 809 -4 629 -2 750 -4
754 -16 3 -8 0 -11 -6 -7 -10 6 -1651 8 -1740 2 -29 -2 -56 -7 -60 -11 -4 -4
4 -6 18 -5 81 7 1630 -2 1630 -9 0 -4 -368 -9 -826 -9 -455 -1 -829 -4 -832
-7 -3 -3 11 -5 30 -5 19 0 46 -8 59 -18 22 -17 46 -19 319 -17 271 2 298 1
328 -16 29 -17 58 -19 272 -19 145 1 240 4 240 10 0 6 -81 9 -202 9 -285 0
-298 0 -298 9 0 7 490 9 515 2 6 -1 15 -1 20 0 6 2 144 3 307 4 164 1 301 5
304 9 4 4 -398 7 -894 7 -564 0 -903 4 -907 10 -4 6 329 9 910 10 644 0 915
-3 915 -10 0 -7 5 -8 13 -3 6 4 32 10 57 14 42 6 -189 14 -282 9 -22 -1 -38 3
-38 9 0 8 59 11 182 11 190 0 234 10 76 18 -60 3 -99 9 -109 18 -13 12 -138
15 -780 17 -420 1 -782 -1 -804 -4z"/>
</g>
</svg>
